<svg xmlns="http://www.w3.org/2000/svg" width="190" height="48" fill="none">
  <path fill="#2B2A29" d="M80.6031 31.2289c-2.102 2.0821-4.6604 3.1231-7.6752 3.1231s-5.5732-1.041-7.6753-3.1231c-2.102-2.082-3.153-4.6504-3.153-7.7052 0-3.0548 1.051-5.6232 3.153-7.7052 2.1021-2.082 4.6605-3.1231 7.6753-3.1231s5.5732 1.0411 7.6752 3.1231c2.102 2.082 3.153 4.6504 3.153 7.7052 0 3.0548-1.051 5.6232-3.153 7.7052Zm-12.0042-3.243c1.1609 1.1493 2.6034 1.7256 4.329 1.7256 1.7256 0 3.168-.5746 4.329-1.7256 1.1609-1.1509 1.7405-2.6383 1.7405-4.4622 0-1.8255-.5796-3.3129-1.7405-4.4622-1.161-1.1493-2.6034-1.7256-4.329-1.7256-1.7256 0-3.1681.5746-4.329 1.7256-1.1609 1.1509-1.7406 2.6383-1.7406 4.4622s.5797 3.313 1.7406 4.4622Zm31.9681 5.9497h-5.0581l-4.7604-6.5609v6.5609h-4.4623V13.1102h4.4623v12.4656l4.4622-6.516h5.2063l-5.4145 7.4371 5.5635 7.437.001.0017Zm4.731-5.6532c.516 1.3892 1.705 2.0821 3.569 2.0821 1.209 0 2.162-.3765 2.857-1.131l3.569 2.0521c-1.467 2.042-3.629 3.0647-6.486 3.0647-2.498 0-4.497-.7428-5.994-2.2319-1.498-1.4874-2.246-3.3613-2.246-5.6232 0-2.2419.74-4.1108 2.217-5.6082 1.478-1.4974 3.377-2.2469 5.697-2.2469 2.162 0 3.962.7495 5.4 2.2469 1.437 1.4974 2.157 3.3663 2.157 5.6082 0 .6346-.06 1.2292-.178 1.7856h-10.562v.0016Zm-.09-3.3312h6.396c-.437-1.5674-1.488-2.3502-3.153-2.3502-1.726 0-2.807.7828-3.243 2.3502Zm22.134-5.8914h4.761l-5.089 14.4294c-.833 2.3402-1.929 4.0158-3.288 5.0285-1.359 1.0111-3.089 1.4675-5.191 1.3675v-4.1657c1.031 0 1.825-.1833 2.38-.5497.554-.3664 1.001-1.006 1.339-1.9188l-5.921-14.1912h4.908l3.303 9.1044 2.797-9.1044h.001Zm36.088 13.0169c-1.527 1.5174-3.391 2.2753-5.593 2.2753s-4.066-.7579-5.593-2.2753c-1.528-1.5174-2.291-3.3762-2.291-5.5782 0-2.2019.763-4.0608 2.291-5.5782 1.527-1.5174 3.391-2.2752 5.593-2.2752s4.066.7578 5.593 2.2752c1.527 1.5174 2.29 3.3763 2.29 5.5782 0 2.202-.764 4.0608-2.29 5.5782Zm-8.033-3.0497c.654.6546 1.467.981 2.44.981.973 0 1.785-.3264 2.44-.981s.981-1.4974.981-2.5285c0-1.031-.326-1.8738-.981-2.5284-.655-.6546-1.467-.9811-2.44-.9811-.973 0-1.786.3265-2.44.9811-.655.6546-.981 1.4974-.981 2.5284 0 1.0311.326 1.8739.981 2.5285Zm16.779-5.6232c0 .2981.253.5397.758.7295.506.1883 1.116.3765 1.829.5647.714.1882 1.427.4314 2.142.7295.714.2982 1.324.7879 1.829 1.4725.506.6845.758 1.5423.758 2.5734 0 1.6073-.595 2.8215-1.786 3.6444-1.189.8228-2.658 1.2342-4.402 1.2342-3.135 0-5.267-1.1793-6.396-3.5395l3.867-2.2019c.397 1.1709 1.24 1.7555 2.529 1.7555 1.071 0 1.607-.3081 1.607-.9227 0-.2965-.253-.5447-.758-.7429-.506-.1982-1.116-.3914-1.829-.5796-.714-.1883-1.427-.4364-2.142-.7446-.714-.3081-1.324-.7878-1.828-1.4424-.507-.6546-.758-1.4574-.758-2.4102 0-1.5474.559-2.7466 1.68-3.5994 1.121-.8528 2.505-1.2792 4.151-1.2792 1.229 0 2.35.2731 3.363.8178 1.011.5447 1.826 1.3342 2.44 2.3652l-3.807 2.0521c-.477-.8728-1.141-1.3092-1.994-1.3092-.833 0-1.249.2781-1.249.8328h-.004Zm17.821-.06h-3.065v5.2668c0 .5946.238.971.715 1.1309.476.1583 1.259.2082 2.35.1483v4.0458c-2.837.2981-4.801.025-5.892-.8178-1.091-.8429-1.635-2.3453-1.635-4.5072v-5.2668h-2.38v-4.284h2.38v-2.8266l4.462-1.3391v4.1657h3.065v4.284Zm-48.822-10.2353c2.044 0 3.768.6946 5.177 2.0821 1.408 1.3891 2.112 3.0747 2.112 5.0568 0 1.9838-.704 3.6694-2.112 5.0585-1.409 1.3892-3.133 2.0821-5.177 2.0821h-3.123v6.5459h-4.76V13.1085h7.883Zm0 9.8173c.733 0 1.34-.2582 1.814-.7729.477-.5163.715-1.1509.715-1.9038 0-.7545-.238-1.3892-.715-1.9038-.476-.5147-1.081-.7729-1.814-.7729h-3.123v5.355h3.123v-.0016Z"/>
  <path fill="url(#a)" fill-rule="evenodd" d="M23.8852 0C37.077 0 47.7703 10.6934 47.7703 23.8852S37.077 47.7703 23.8852 47.7703 0 37.077 0 23.8852 10.6934 0 23.8852 0Zm0 9.3009c8.0549 0 14.5842 6.5293 14.5842 14.5843 0 8.0549-6.5293 14.5842-14.5842 14.5842-8.055 0-14.5843-6.5293-14.5843-14.5842 0-8.055 6.5293-14.5843 14.5843-14.5843Z" clip-rule="evenodd"/>
  <path fill="#1F2428" fill-rule="evenodd" d="M40.4714 41.0711c-1.9971 1.9272-4.3306 3.5112-6.9007 4.6521l-6.8891-7.5236c2.9016-.563 5.495-1.9854 7.507-3.9909l6.2845 6.8624h-.0017Z" clip-rule="evenodd" opacity=".2"/>
  <path fill="url(#b)" fill-rule="evenodd" d="m51.0881.2532-8.7313 8.488c-2.0803-2.535-4.6737-4.6354-7.6202-6.1412L37.1684.2515h13.9197v.0017Zm-15.4388 15.009-8.2848 8.0533 22.521 23.8618H36.5921L13.693 22.9158 27.3628 9.7189c3.3763.8262 6.2895 2.8266 8.2849 5.5433h.0016Z" clip-rule="evenodd"/>
  <path fill="#1F2428" fill-rule="evenodd" d="M26.6083 10.4485c3.3712.8361 6.2794 2.8432 8.2665 5.5665l.7746-.7528c-1.9955-2.7167-4.9087-4.7171-8.2849-5.5433l-.7562.7296Z" clip-rule="evenodd" opacity=".2"/>
  <defs>
    <linearGradient id="a" x1=".6121" x2="54.7001" y1="47.7703" y2="37.8739" gradientUnits="userSpaceOnUse">
      <stop stop-color="#5B52A3"/>
      <stop offset="1" stop-color="#40B8EA"/>
    </linearGradient>
    <linearGradient id="b" x1="13.693" x2="49.9521" y1="22.9157" y2="22.9157" gradientUnits="userSpaceOnUse">
      <stop stop-color="#54E1AB"/>
      <stop offset="1" stop-color="#7EEEC1"/>
    </linearGradient>
  </defs>
</svg>
